<?xml version="1.0" standalone="no"?>
<!DOCTYPE svg PUBLIC "-//W3C//DTD SVG 20010904//EN"
 "http://www.w3.org/TR/2001/REC-SVG-20010904/DTD/svg10.dtd">
<svg version="1.0" xmlns="http://www.w3.org/2000/svg"
 width="512.000000pt" height="512.000000pt" viewBox="0 0 512.000000 512.000000"
 preserveAspectRatio="xMidYMid meet">

<g transform="translate(0.000000,512.000000) scale(0.100000,-0.100000)"
fill="#000000" stroke="none">
<path d="M3855 4048 c2 -7 34 -144 70 -304 l65 -291 0 -1411 c0 -1328 -1
-1411 -17 -1431 l-18 -21 -1510 -3 -1510 -2 -3 -47 c-2 -37 1 -51 17 -67 l21
-21 1590 0 c1577 0 1590 0 1610 20 20 20 20 33 20 1503 l0 1482 -67 303 -67
302 -103 0 c-77 0 -101 -3 -98 -12z"/>
<path d="M1623 3834 c-49 -24 -61 -52 -98 -217 -19 -84 -45 -203 -60 -266
l-25 -115 0 -1067 0 -1067 -81 -179 c-44 -98 -83 -184 -86 -191 -4 -9 257 -12
1287 -12 710 0 1290 4 1288 8 -1 5 -45 101 -96 214 l-92 205 0 1054 0 1054
-56 250 c-31 137 -61 261 -67 274 -7 13 -25 34 -40 45 -28 21 -33 21 -935 23
-811 2 -910 1 -939 -13z m1875 -337 l22 -23 2 -1005 3 -1004 -965 0 -965 0 3
1004 2 1005 22 23 21 23 917 0 917 0 21 -23z m-1938 -2127 c-17 -33 -33 -60
-35 -60 -3 0 8 27 25 60 17 33 33 60 35 60 3 0 -8 -27 -25 -60z m2005 10 c14
-27 23 -50 20 -50 -2 0 -16 23 -30 50 -14 28 -23 50 -20 50 2 0 16 -22 30 -50z
m-2067 -145 c-12 -24 -23 -43 -26 -41 -4 5 36 86 43 86 3 0 -5 -20 -17 -45z
m2132 4 c12 -23 20 -43 18 -45 -3 -2 -14 17 -26 41 -27 56 -20 60 8 4z m-870
-114 l0 -135 -472 2 -473 3 -3 133 -3 132 476 0 475 0 0 -135z"/>
<path d="M2794 2072 c-28 -19 -34 -56 -34 -226 0 -96 4 -186 10 -200 15 -42
60 -48 328 -44 242 3 244 3 263 27 17 21 19 41 19 217 0 181 -1 195 -20 214
-19 19 -33 20 -287 20 -148 0 -273 -4 -279 -8z m446 -227 l0 -105 -170 0 -170
0 0 105 0 105 170 0 170 0 0 -105z"/>
<path d="M1761 1854 c-27 -35 -26 -59 4 -89 l24 -25 364 0 364 0 21 23 c27 29
28 71 2 97 -19 19 -33 20 -389 20 l-370 0 -20 -26z"/>
</g>
</svg>
